<?xml version="1.0" encoding="UTF-8"?> <svg xmlns="http://www.w3.org/2000/svg" width="50.65" height="41" viewBox="0 0 50.65 41"><g id="Group_3908" data-name="Group 3908" transform="translate(-934 -4351)"><g id="Group_3906" data-name="Group 3906"><path id="Union_7" data-name="Union 7" d="M-1745.969-52a2.144,2.144,0,0,1-2.156-2.143v-4.286a2.145,2.145,0,0,1,2.156-2.143h.718a5.737,5.737,0,0,0,5.75-5.714v-3.057a12.08,12.08,0,0,1-3.424.493A12.075,12.075,0,0,1-1755-80.925,12.075,12.075,0,0,1-1742.925-93a12.074,12.074,0,0,1,12.074,12.074q0,.394-.025.783c0,.024,0,.048,0,.072v13.785A14.327,14.327,0,0,1-1745.25-52Z" transform="translate(2689 4444)" fill="coral"></path></g><g id="Group_3907" data-name="Group 3907" transform="translate(26.5)"><path id="Union_6" data-name="Union 6" d="M-1772.469-52a2.145,2.145,0,0,1-2.156-2.143v-4.286a2.145,2.145,0,0,1,2.156-2.143h.719a5.737,5.737,0,0,0,5.75-5.714v-3.057a12.079,12.079,0,0,1-3.425.493A12.075,12.075,0,0,1-1781.5-80.925,12.074,12.074,0,0,1-1769.425-93a12.075,12.075,0,0,1,12.075,12.074q0,.4-.026.793c0,.02,0,.041,0,.061v13.785A14.326,14.326,0,0,1-1771.75-52Z" transform="translate(2715.5 4444)" fill="coral"></path></g></g></svg> 