<?xml version="1.0" encoding="UTF-8"?> <svg xmlns="http://www.w3.org/2000/svg" xmlns:xlink="http://www.w3.org/1999/xlink" width="369.454" height="370.945" viewBox="0 0 369.454 370.945"><defs><filter id="Path_66" x="253.067" y="0" width="89.916" height="89.916"><feOffset dy="3"></feOffset><feGaussianBlur stdDeviation="11.5" result="blur"></feGaussianBlur><feFlood flood-color="coral" flood-opacity="0.4"></feFlood><feComposite operator="in" in2="blur"></feComposite><feComposite in="SourceGraphic"></feComposite></filter><filter id="Subtraction_15" x="86.389" y="106.031" width="176.845" height="176.846"><feOffset dy="3"></feOffset><feGaussianBlur stdDeviation="11.5" result="blur-2"></feGaussianBlur><feFlood flood-color="coral" flood-opacity="0.4"></feFlood><feComposite operator="in" in2="blur-2"></feComposite><feComposite in="SourceGraphic"></feComposite></filter></defs><g id="Home_ourwork_elements" transform="translate(0 -2229.277)"><g transform="matrix(1, 0, 0, 1, 0, 2229.28)" filter="url(#Path_66)"><path id="Path_66-2" data-name="Path 66" d="M10.458,0A10.458,10.458,0,1,1,0,10.458,10.458,10.458,0,0,1,10.458,0Z" transform="translate(287.57 31.5)" fill="coral"></path></g><path id="Path_38" data-name="Path 38" d="M58.307,0A58.307,58.307,0,1,1,0,58.307,58.307,58.307,0,0,1,58.307,0Z" transform="matrix(0.259, 0.966, -0.966, 0.259, 339.272, 2457.4)" fill="#fff" opacity="0.33"></path><path id="Path_41" data-name="Path 41" d="M18.9,0A18.9,18.9,0,1,1,0,18.9,18.9,18.9,0,0,1,18.9,0Z" transform="matrix(0.259, 0.966, -0.966, 0.259, 36.506, 2382.249)" fill="#fff" opacity="0.33"></path><g transform="matrix(1, 0, 0, 1, 0, 2229.28)" filter="url(#Subtraction_15)"><path id="Subtraction_15-2" data-name="Subtraction 15" d="M44.028,88.055A44.039,44.039,0,0,1,26.891,3.46,44.039,44.039,0,0,1,61.166,84.6,43.752,43.752,0,0,1,44.028,88.055Zm0-60.133a16.105,16.105,0,1,0,16.1,16.105A16.123,16.123,0,0,0,44.028,27.922Z" transform="matrix(0.26, 0.97, -0.97, 0.26, 205.94, 137.53)" fill="coral"></path></g></g></svg> 