<?xml version="1.0" encoding="UTF-8"?> <svg xmlns="http://www.w3.org/2000/svg" xmlns:xlink="http://www.w3.org/1999/xlink" width="1275.03" height="358" viewBox="0 0 1275.03 358"><defs><linearGradient id="linear-gradient" x1="-0.077" y1="0.429" x2="1.218" y2="0.066" gradientUnits="objectBoundingBox"><stop offset="0" stop-color="#a500ff"></stop><stop offset="0.498" stop-color="#5372ff" stop-opacity="0.349"></stop><stop offset="1" stop-color="#00e5ff" stop-opacity="0.31"></stop></linearGradient><filter id="Path_162" x="1114.5" y="274" width="84" height="84"><feOffset dy="3"></feOffset><feGaussianBlur stdDeviation="11.5" result="blur"></feGaussianBlur><feFlood flood-color="coral" flood-opacity="0.4"></feFlood><feComposite operator="in" in2="blur"></feComposite><feComposite in="SourceGraphic"></feComposite></filter><filter id="Path_163" x="1006.988" y="208.317" width="114.709" height="114.708"><feOffset dy="3"></feOffset><feGaussianBlur stdDeviation="11.5" result="blur-2"></feGaussianBlur><feFlood flood-color="coral" flood-opacity="0.4"></feFlood><feComposite operator="in" in2="blur-2"></feComposite><feComposite in="SourceGraphic"></feComposite></filter><linearGradient id="linear-gradient-2" x1="-0.077" y1="0.571" x2="1.218" y2="0.934" xlink:href="#linear-gradient"></linearGradient><filter id="Path_159" x="58.238" y="0" width="88.497" height="88.497"><feOffset dy="3"></feOffset><feGaussianBlur stdDeviation="11.5" result="blur-3"></feGaussianBlur><feFlood flood-color="coral" flood-opacity="0.4"></feFlood><feComposite operator="in" in2="blur-3"></feComposite><feComposite in="SourceGraphic"></feComposite></filter></defs><g id="single_about_Whitebox_elements" transform="translate(-328.297 -1394.674)"><g id="Group_3976" data-name="Group 3976" transform="translate(1603.326 1716.305) rotate(180)"><path id="Subtraction_154" data-name="Subtraction 154" d="M41.645,0a41.655,41.655,0,0,0-16.21,80.016A41.655,41.655,0,0,0,57.855,3.273,41.384,41.384,0,0,0,41.645,0Zm0,56.877A15.233,15.233,0,1,1,56.878,41.644,15.25,15.25,0,0,1,41.645,56.877Z" transform="matrix(-0.259, 0.966, -0.966, -0.259, 102.007, 37.859)" fill="url(#linear-gradient)"></path><g transform="matrix(-1, 0, 0, -1, 1275.03, 321.63)" filter="url(#Path_162)"><path id="Path_162-2" data-name="Path 162" d="M7.5,15A7.5,7.5,0,1,0,0,7.5,7.5,7.5,0,0,0,7.5,15Z" transform="translate(1164 305.5) rotate(90)" fill="coral"></path></g><g transform="matrix(-1, 0, 0, -1, 1275.03, 321.63)" filter="url(#Path_163)"><path id="Path_163-2" data-name="Path 163" d="M22.854,45.709A22.855,22.855,0,1,0,0,22.855,22.854,22.854,0,0,0,22.854,45.709Z" transform="translate(1087.2 239.82) rotate(90)" fill="coral"></path></g></g><path id="Subtraction_153" data-name="Subtraction 153" d="M-1646.355-1233.712a41.386,41.386,0,0,1-16.21-3.273,41.509,41.509,0,0,1-13.238-8.925,41.509,41.509,0,0,1-8.925-13.237,41.382,41.382,0,0,1-3.273-16.21,41.382,41.382,0,0,1,3.273-16.21,41.5,41.5,0,0,1,8.925-13.237,41.513,41.513,0,0,1,13.238-8.925,41.386,41.386,0,0,1,16.21-3.272,41.386,41.386,0,0,1,16.21,3.272,41.507,41.507,0,0,1,13.237,8.925,41.51,41.51,0,0,1,8.925,13.237,41.386,41.386,0,0,1,3.272,16.21,41.386,41.386,0,0,1-3.272,16.21,41.508,41.508,0,0,1-8.925,13.237,41.5,41.5,0,0,1-13.237,8.925A41.384,41.384,0,0,1-1646.355-1233.712Zm0-56.877a15.25,15.25,0,0,0-15.233,15.233,15.25,15.25,0,0,0,15.233,15.233,15.25,15.25,0,0,0,15.233-15.233A15.25,15.25,0,0,0-1646.355-1290.589Z" transform="translate(-1276.415 210.584) rotate(180)" fill="url(#linear-gradient-2)"></path><g transform="matrix(1, 0, 0, 1, 328.3, 1394.67)" filter="url(#Path_159)"><path id="Path_159-2" data-name="Path 159" d="M7.96,0A7.96,7.96,0,1,1,0,7.96,7.96,7.96,0,0,1,7.96,0Z" transform="matrix(0.97, 0.26, -0.26, 0.97, 96.86, 31.5)" fill="coral"></path></g></g></svg> 