<?xml version="1.0" encoding="UTF-8"?> <svg xmlns="http://www.w3.org/2000/svg" xmlns:xlink="http://www.w3.org/1999/xlink" width="557.5" height="386.5" viewBox="0 0 557.5 386.5"><defs><filter id="Subtraction_150" x="236.5" y="215.5" width="171.001" height="171"><feOffset dy="3"></feOffset><feGaussianBlur stdDeviation="11.5" result="blur"></feGaussianBlur><feFlood flood-color="coral" flood-opacity="0.4"></feFlood><feComposite operator="in" in2="blur"></feComposite><feComposite in="SourceGraphic"></feComposite></filter><linearGradient id="linear-gradient" x1="-0.077" y1="0.571" x2="1.218" y2="0.934" gradientUnits="objectBoundingBox"><stop offset="0" stop-color="#a500ff"></stop><stop offset="0.498" stop-color="#5372ff" stop-opacity="0.349"></stop><stop offset="1" stop-color="#00e5ff" stop-opacity="0.31"></stop></linearGradient><filter id="Path_187" x="445.679" y="172.361" width="111.821" height="111.821"><feOffset dy="3"></feOffset><feGaussianBlur stdDeviation="11.5" result="blur-2"></feGaussianBlur><feFlood flood-color="coral" flood-opacity="0.4"></feFlood><feComposite operator="in" in2="blur-2"></feComposite><feComposite in="SourceGraphic"></feComposite></filter><filter id="Path_154" x="401.862" y="136.135" width="79.638" height="79.638"><feOffset dy="3"></feOffset><feGaussianBlur stdDeviation="11.5" result="blur-3"></feGaussianBlur><feFlood flood-color="coral" flood-opacity="0.4"></feFlood><feComposite operator="in" in2="blur-3"></feComposite><feComposite in="SourceGraphic"></feComposite></filter></defs><g id="single-about_elements" transform="translate(-1242 -826)"><g transform="matrix(1, 0, 0, 1, 1242, 826)" filter="url(#Subtraction_150)"><path id="Subtraction_150-2" data-name="Subtraction 150" d="M51,0A51.377,51.377,0,0,0,40.722,1.036,50.72,50.72,0,0,0,22.485,8.71,51.149,51.149,0,0,0,4.008,31.149a50.744,50.744,0,0,0-2.972,9.573,51.5,51.5,0,0,0,0,20.557A50.721,50.721,0,0,0,8.71,79.515,51.149,51.149,0,0,0,31.149,97.993a50.742,50.742,0,0,0,9.573,2.972,51.5,51.5,0,0,0,20.557,0,50.72,50.72,0,0,0,18.236-7.674A51.149,51.149,0,0,0,97.992,70.852a50.744,50.744,0,0,0,2.972-9.573,51.5,51.5,0,0,0,0-20.557A50.722,50.722,0,0,0,93.29,22.486,51.149,51.149,0,0,0,70.852,4.008a50.743,50.743,0,0,0-9.573-2.972A51.377,51.377,0,0,0,51,0Zm.076,69.615a18.69,18.69,0,1,1,18.69-18.69A18.711,18.711,0,0,1,51.076,69.615Z" transform="translate(271 349) rotate(-90)" fill="coral"></path></g><path id="Subtraction_148" data-name="Subtraction 148" d="M174.5,349a175.789,175.789,0,0,1-35.168-3.545,173.543,173.543,0,0,1-62.4-26.257,175.009,175.009,0,0,1-63.222-76.775A173.621,173.621,0,0,1,3.545,209.668a176.2,176.2,0,0,1,0-70.336A173.542,173.542,0,0,1,29.8,76.935a175.01,175.01,0,0,1,76.775-63.222A173.617,173.617,0,0,1,139.332,3.545a176.2,176.2,0,0,1,70.336,0,173.542,173.542,0,0,1,62.4,26.257,175.01,175.01,0,0,1,63.222,76.775,173.62,173.62,0,0,1,10.168,32.755,176.2,176.2,0,0,1,0,70.336,173.547,173.547,0,0,1-26.257,62.4,175.009,175.009,0,0,1-76.775,63.222,173.618,173.618,0,0,1-32.755,10.168A175.789,175.789,0,0,1,174.5,349Zm.259-238.19a63.949,63.949,0,1,0,63.949,63.949A64.021,64.021,0,0,0,174.759,110.81Z" transform="translate(1242 1175) rotate(-90)" fill="url(#linear-gradient)"></path><path id="Path_153" data-name="Path 153" d="M17.482,0A17.482,17.482,0,1,1,0,17.482,17.482,17.482,0,0,1,17.482,0Z" transform="matrix(0.259, 0.966, -0.966, 0.259, 1546.816, 1051.861)" fill="#fff" opacity="0.33"></path><g transform="matrix(1, 0, 0, 1, 1242, 826)" filter="url(#Path_187)"><path id="Path_187-2" data-name="Path 187" d="M17.482,0A17.482,17.482,0,1,1,0,17.482,17.482,17.482,0,0,1,17.482,0Z" transform="matrix(0.26, 0.97, -0.97, 0.26, 513.95, 203.86)" fill="coral"></path></g><g transform="matrix(1, 0, 0, 1, 1242, 826)" filter="url(#Path_154)"><path id="Path_154-2" data-name="Path 154" d="M5.319,0A5.319,5.319,0,1,1,0,5.319,5.319,5.319,0,0,1,5.319,0Z" transform="translate(436.36 178.27) rotate(-90)" fill="coral"></path></g></g></svg> 