<?xml version="1.0" encoding="UTF-8"?> <svg xmlns="http://www.w3.org/2000/svg" xmlns:xlink="http://www.w3.org/1999/xlink" width="243.54" height="266.727" viewBox="0 0 243.54 266.727"><defs><filter id="Path_21" x="171.287" y="82" width="72.253" height="72.253"><feOffset dy="6"></feOffset><feGaussianBlur stdDeviation="6" result="blur"></feGaussianBlur><feFlood flood-color="#010001" flood-opacity="0.051"></feFlood><feComposite operator="in" in2="blur"></feComposite><feComposite in="SourceGraphic"></feComposite></filter><filter id="Subtraction_6" x="100.998" y="0" width="106.289" height="106.288"><feOffset dy="6"></feOffset><feGaussianBlur stdDeviation="6" result="blur-2"></feGaussianBlur><feFlood flood-color="#010001" flood-opacity="0.051"></feFlood><feComposite operator="in" in2="blur-2"></feComposite><feComposite in="SourceGraphic"></feComposite></filter></defs><g id="SLider_elements" transform="translate(-1610.713 -423)"><g transform="matrix(1, 0, 0, 1, 1610.71, 423)" filter="url(#Path_21)"><path id="Path_21-2" data-name="Path 21" d="M18.127,0A18.127,18.127,0,1,1,0,18.127,18.127,18.127,0,0,1,18.127,0Z" transform="translate(189.29 94)" fill="coral"></path></g><g transform="matrix(1, 0, 0, 1, 1610.71, 423)" filter="url(#Subtraction_6)"><path id="Subtraction_6-2" data-name="Subtraction 6" d="M-1652.855-1246.712a34.927,34.927,0,0,1-13.68-2.762,35.033,35.033,0,0,1-11.171-7.532,35.03,35.03,0,0,1-7.532-11.171,34.923,34.923,0,0,1-2.762-13.68,34.922,34.922,0,0,1,2.762-13.68,35.025,35.025,0,0,1,7.532-11.171,35.032,35.032,0,0,1,11.171-7.532,34.927,34.927,0,0,1,13.68-2.762,34.925,34.925,0,0,1,13.68,2.762,35.03,35.03,0,0,1,11.171,7.532,35.031,35.031,0,0,1,7.532,11.171,34.925,34.925,0,0,1,2.762,13.68,34.925,34.925,0,0,1-2.762,13.68,35.031,35.031,0,0,1-7.532,11.171,35.029,35.029,0,0,1-11.171,7.532A34.925,34.925,0,0,1-1652.855-1246.712Zm0-48a12.87,12.87,0,0,0-12.856,12.856A12.87,12.87,0,0,0-1652.855-1269,12.87,12.87,0,0,0-1640-1281.856,12.87,12.87,0,0,0-1652.855-1294.711Z" transform="translate(1807 1329)" fill="coral"></path></g><path id="Subtraction_8" data-name="Subtraction 8" d="M159.986-1179.273c-25.407-4.81-50.535-8.692-74.689-11.537a43.862,43.862,0,0,0,.569-7.045,43.631,43.631,0,0,0-43.582-43.583A43.632,43.632,0,0,0-1.3-1197.855c0,.422.006.85.018,1.271-1.7-.014-3.46-.022-5.219-.022a515.519,515.519,0,0,0-56.446,2.916c-4.607.455-9.244.955-13.782,1.486-.088-1.884-.133-3.785-.133-5.651a120.074,120.074,0,0,1,2.42-24.012,118.568,118.568,0,0,1,6.943-22.365,119.186,119.186,0,0,1,10.984-20.238A120.016,120.016,0,0,1-41.963-1282.1a120.006,120.006,0,0,1,17.633-14.548,119.161,119.161,0,0,1,20.239-10.985,118.561,118.561,0,0,1,22.364-6.943A120.08,120.08,0,0,1,42.285-1317a120.076,120.076,0,0,1,24.011,2.42,118.592,118.592,0,0,1,22.364,6.943,119.154,119.154,0,0,1,20.238,10.985,119.948,119.948,0,0,1,17.633,14.548,120.019,120.019,0,0,1,14.549,17.633,119.182,119.182,0,0,1,10.985,20.238,118.569,118.569,0,0,1,6.942,22.365,120.013,120.013,0,0,1,2.421,24.012,120.62,120.62,0,0,1-1.442,18.581Z" transform="translate(1687.572 1869)" fill="#fff" opacity="0.38"></path></g></svg> 