<?xml version="1.0" encoding="UTF-8"?> <svg xmlns="http://www.w3.org/2000/svg" xmlns:xlink="http://www.w3.org/1999/xlink" width="340.356" height="552.315" viewBox="0 0 340.356 552.315"><defs><filter id="Path_66" x="228.393" y="0" width="88.783" height="88.783"><feOffset dy="3"></feOffset><feGaussianBlur stdDeviation="11.5" result="blur"></feGaussianBlur><feFlood flood-color="coral" flood-opacity="0.4"></feFlood><feComposite operator="in" in2="blur"></feComposite><feComposite in="SourceGraphic"></feComposite></filter><filter id="Subtraction_15" x="70.845" y="100.442" width="171.007" height="171.008"><feOffset dy="3"></feOffset><feGaussianBlur stdDeviation="11.5" result="blur-2"></feGaussianBlur><feFlood flood-color="coral" flood-opacity="0.4"></feFlood><feComposite operator="in" in2="blur-2"></feComposite><feComposite in="SourceGraphic"></feComposite></filter></defs><g id="subfooter_element" transform="translate(-139.974 -6126.97)"><g transform="matrix(1, 0, 0, 1, 139.97, 6126.97)" filter="url(#Path_66)"><path id="Path_66-2" data-name="Path 66" d="M9.892,0A9.892,9.892,0,1,1,0,9.892,9.892,9.892,0,0,1,9.892,0Z" transform="translate(262.89 31.5)" fill="coral"></path></g><path id="Path_38" data-name="Path 38" d="M55.151,0A55.151,55.151,0,1,1,0,55.151,55.151,55.151,0,0,1,55.151,0Z" transform="matrix(0.259, 0.966, -0.966, 0.259, 451.782, 6344.727)" fill="#fff" opacity="0.33"></path><path id="Path_41" data-name="Path 41" d="M17.874,0A17.874,17.874,0,1,1,0,17.874,17.874,17.874,0,0,1,17.874,0Z" transform="matrix(0.259, 0.966, -0.966, 0.259, 174.504, 6635.503)" fill="#fff" opacity="0.33"></path><g transform="matrix(1, 0, 0, 1, 139.97, 6126.97)" filter="url(#Subtraction_15)"><path id="Subtraction_15-2" data-name="Subtraction 15" d="M41.645,83.288A41.655,41.655,0,0,1,25.435,3.272a41.655,41.655,0,0,1,32.42,76.743A41.384,41.384,0,0,1,41.645,83.288Zm0-56.877A15.233,15.233,0,1,0,56.878,41.644,15.25,15.25,0,0,0,41.645,26.411Z" transform="matrix(0.26, 0.97, -0.97, 0.26, 185.8, 131.94)" fill="coral"></path></g></g></svg> 