<?xml version="1.0" encoding="UTF-8"?> <svg xmlns="http://www.w3.org/2000/svg" width="238.287" height="238.29" viewBox="0 0 238.287 238.29"><path id="Subtraction_191" data-name="Subtraction 191" d="M-1568.855-1078.711a120.026,120.026,0,0,1-24.012-2.421,118.531,118.531,0,0,1-22.364-6.942,119.163,119.163,0,0,1-20.238-10.985,120.013,120.013,0,0,1-17.633-14.549,120,120,0,0,1-14.548-17.633,119.155,119.155,0,0,1-10.985-20.239,118.54,118.54,0,0,1-6.942-22.365,120.029,120.029,0,0,1-2.421-24.012,120.029,120.029,0,0,1,2.421-24.012,118.548,118.548,0,0,1,6.942-22.365,119.155,119.155,0,0,1,10.985-20.239A120,120,0,0,1-1653.1-1282.1a120,120,0,0,1,17.633-14.549,119.163,119.163,0,0,1,20.238-10.985,118.534,118.534,0,0,1,22.364-6.942,120.029,120.029,0,0,1,24.012-2.421,120.026,120.026,0,0,1,24.011,2.421,118.526,118.526,0,0,1,22.364,6.942,119.159,119.159,0,0,1,20.238,10.985,120.014,120.014,0,0,1,17.633,14.549,120.017,120.017,0,0,1,14.548,17.633,119.152,119.152,0,0,1,10.985,20.239,118.548,118.548,0,0,1,6.942,22.365,120.029,120.029,0,0,1,2.421,24.012,120.029,120.029,0,0,1-2.421,24.012,118.551,118.551,0,0,1-6.942,22.365,119.152,119.152,0,0,1-10.985,20.239,120.009,120.009,0,0,1-14.548,17.633,120.018,120.018,0,0,1-17.633,14.549,119.163,119.163,0,0,1-20.238,10.985,118.529,118.529,0,0,1-22.364,6.942A120.024,120.024,0,0,1-1568.855-1078.711Zm0-162.727a43.632,43.632,0,0,0-43.583,43.583,43.632,43.632,0,0,0,43.583,43.583,43.632,43.632,0,0,0,43.582-43.583A43.631,43.631,0,0,0-1568.855-1241.438Z" transform="translate(1687.999 1317)" fill="#fff" opacity="0.38"></path></svg> 