<?xml version="1.0" encoding="UTF-8"?> <svg xmlns="http://www.w3.org/2000/svg" xmlns:xlink="http://www.w3.org/1999/xlink" width="674" height="676" viewBox="0 0 674 676"><defs><linearGradient id="linear-gradient" x1="-0.077" y1="0.571" x2="1.218" y2="0.934" gradientUnits="objectBoundingBox"><stop offset="0" stop-color="#a500ff"></stop><stop offset="0.498" stop-color="#5372ff" stop-opacity="0.349"></stop><stop offset="1" stop-color="#00e5ff" stop-opacity="0.31"></stop></linearGradient></defs><path id="Subtraction_16" data-name="Subtraction 16" d="M338,674a341.47,341.47,0,0,1-68.119-6.847,336.967,336.967,0,0,1,0-660.307,342.286,342.286,0,0,1,136.237,0,336.967,336.967,0,0,1,0,660.307A341.469,341.469,0,0,1,338,674Zm0-460.273c-68.175,0-123.64,55.3-123.64,123.274S269.825,460.274,338,460.274,461.639,404.974,461.639,337,406.175,213.727,338,213.727Z" transform="translate(0 676) rotate(-90)" fill="url(#linear-gradient)"></path></svg> 