<?xml version="1.0" encoding="UTF-8"?> <svg xmlns="http://www.w3.org/2000/svg" xmlns:xlink="http://www.w3.org/1999/xlink" width="97" height="97" viewBox="0 0 97 97"><defs><linearGradient id="linear-gradient" x1="-0.077" y1="0.571" x2="1.218" y2="0.934" gradientUnits="objectBoundingBox"><stop offset="0" stop-color="#a500ff"></stop><stop offset="0.498" stop-color="#5372ff" stop-opacity="0.349"></stop><stop offset="1" stop-color="#00e5ff" stop-opacity="0.31"></stop></linearGradient></defs><path id="transparent_cyrcle" d="M48.5,0a48.859,48.859,0,0,0-9.774.985,48.234,48.234,0,0,0-17.342,7.3A48.642,48.642,0,0,0,3.811,29.622a48.255,48.255,0,0,0-2.826,9.1,48.973,48.973,0,0,0,0,19.549,48.234,48.234,0,0,0,7.3,17.342A48.642,48.642,0,0,0,29.622,93.189a48.256,48.256,0,0,0,9.1,2.826,48.973,48.973,0,0,0,19.549,0,48.234,48.234,0,0,0,17.342-7.3A48.642,48.642,0,0,0,93.189,67.378a48.256,48.256,0,0,0,2.826-9.1,48.973,48.973,0,0,0,0-19.549,48.235,48.235,0,0,0-7.3-17.342A48.641,48.641,0,0,0,67.378,3.811a48.256,48.256,0,0,0-9.1-2.826A48.859,48.859,0,0,0,48.5,0Zm.072,66.2A17.774,17.774,0,1,1,66.346,48.428,17.794,17.794,0,0,1,48.572,66.2Z" transform="translate(0 97) rotate(-90)" fill="url(#linear-gradient)"></path></svg> 