<?xml version="1.0" standalone="no"?>
<!DOCTYPE svg PUBLIC "-//W3C//DTD SVG 20010904//EN"
 "http://www.w3.org/TR/2001/REC-SVG-20010904/DTD/svg10.dtd">
<svg version="1.0" xmlns="http://www.w3.org/2000/svg"
 width="311.000000pt" height="95.000000pt" viewBox="0 0 311.000000 95.000000"
 preserveAspectRatio="xMidYMid meet">

<g transform="translate(0.000000,95.000000) scale(0.100000,-0.100000)"
fill="#000000" stroke="none">
<path d="M1256 884 c-9 -8 -16 -23 -16 -32 -1 -21 298 -312 319 -312 9 0 82
63 164 141 133 127 147 144 147 175 0 28 -4 35 -26 40 -28 7 -30 5 -201 -160
l-82 -80 -129 122 c-72 67 -137 122 -145 122 -9 0 -23 -7 -31 -16z"/>
<path d="M1250 611 c-5 -11 -10 -67 -10 -125 0 -82 3 -108 16 -120 23 -23 51
-20 70 9 22 33 17 231 -6 245 -25 16 -59 11 -70 -9z"/>
<path d="M1800 620 c-11 -7 -16 -35 -18 -117 -3 -95 -1 -112 15 -132 16 -19
25 -23 47 -17 l27 7 -3 132 -3 132 -25 3 c-14 1 -32 -2 -40 -8z"/>
<path d="M64 249 c-4 -6 22 -40 60 -78 l66 -66 67 67 c53 54 65 70 55 80 -10
10 -24 1 -67 -42 l-55 -54 -53 52 c-56 55 -62 58 -73 41z"/>
<path d="M544 246 c-5 -14 97 -199 116 -211 6 -4 13 1 16 9 6 16 -103 216
-118 216 -5 0 -11 -6 -14 -14z"/>
<path d="M1087 254 c-10 -11 -8 -212 2 -218 22 -14 32 25 29 120 -3 90 -11
117 -31 98z"/>
<path d="M1257 254 c-4 -4 -7 -24 -7 -45 0 -37 -1 -38 -42 -41 -31 -2 -44 -8
-46 -20 -3 -15 4 -18 42 -18 l46 0 0 -44 c0 -30 5 -46 15 -50 23 -8 26 9 23
119 -3 91 -11 118 -31 99z"/>
<path d="M1417 254 c-10 -10 -9 -212 1 -218 4 -2 14 -1 20 3 9 5 12 37 10 111
-3 95 -11 123 -31 104z"/>
<path d="M1573 245 c-7 -19 6 -34 119 -137 71 -65 89 -77 94 -63 5 12 -20 43
-92 116 -54 54 -102 99 -107 99 -4 0 -10 -7 -14 -15z"/>
<path d="M1762 205 c4 -71 22 -71 26 0 2 45 0 55 -13 55 -13 0 -15 -10 -13
-55z"/>
<path d="M2545 248 c-3 -8 -4 -59 -3 -114 2 -80 6 -99 18 -99 12 0 15 19 15
109 0 79 -4 111 -12 113 -7 3 -15 -2 -18 -9z"/>
<path d="M2625 250 c-13 -21 11 -31 61 -28 36 2 49 7 49 18 0 19 -99 27 -110
10z"/>
<path d="M2835 249 c-15 -23 15 -30 116 -27 84 2 104 6 104 18 0 12 -20 16
-107 18 -71 2 -109 -1 -113 -9z"/>
<path d="M817 239 c-60 -35 -60 -145 0 -184 43 -29 60 4 18 37 -18 14 -25 29
-25 52 0 22 8 40 25 56 40 38 28 66 -18 39z"/>
<path d="M907 243 c-12 -11 -8 -20 19 -38 35 -23 56 -5 29 25 -18 20 -36 25
-48 13z"/>
<path d="M1927 232 c-41 -45 -6 -102 61 -102 64 0 92 -32 52 -58 -22 -13 -19
-32 6 -32 21 0 54 37 54 60 0 33 -34 57 -90 65 -55 8 -75 29 -47 50 10 7 17
17 17 24 0 17 -35 13 -53 -7z"/>
<path d="M2025 240 c-9 -15 43 -36 56 -23 6 6 8 16 5 22 -9 14 -53 14 -61 1z"/>
<path d="M2238 223 c-35 -37 -43 -72 -25 -116 18 -42 62 -76 79 -59 8 8 3 19
-20 41 -42 38 -42 74 -1 112 29 27 32 49 5 49 -7 0 -24 -12 -38 -27z"/>
<path d="M2340 237 c0 -8 11 -24 25 -37 34 -32 34 -81 -1 -109 -16 -13 -24
-27 -20 -36 7 -18 16 -19 36 -2 49 38 62 95 35 147 -22 42 -75 68 -75 37z"/>
<path d="M493 168 c-58 -77 -83 -179 -28 -116 18 21 33 28 60 28 28 0 35 4 35
20 0 15 -7 20 -25 20 -23 0 -24 2 -15 20 17 32 -6 55 -27 28z"/>
<path d="M2932 108 c2 -40 8 -73 13 -73 6 0 11 33 13 73 2 60 0 72 -13 72 -13
0 -15 -12 -13 -72z"/>
<path d="M2633 164 c-7 -3 -13 -12 -13 -20 0 -10 12 -14 41 -14 33 0 40 3 37
18 -3 17 -41 26 -65 16z"/>
<path d="M67 144 c-4 -4 -7 -29 -7 -55 0 -33 5 -49 15 -53 20 -7 27 11 23 65
-3 40 -16 58 -31 43z"/>
<path d="M287 144 c-13 -14 -7 -91 8 -104 20 -16 27 3 23 61 -3 40 -16 58 -31
43z"/>
<path d="M1572 95 c4 -71 22 -71 26 0 2 45 0 55 -13 55 -13 0 -15 -10 -13 -55z"/>
<path d="M920 80 c-19 -15 -22 -22 -13 -31 9 -9 18 -8 38 5 25 17 29 36 9 43
-5 1 -20 -6 -34 -17z"/>
<path d="M1910 66 c0 -15 21 -26 51 -26 23 0 25 25 3 34 -27 10 -54 7 -54 -8z"/>
</g>
</svg>
